<svg width="257" height="39" viewBox="0 0 1690 306" fill="none" xmlns="http://www.w3.org/2000/svg">
<path d="M1562.26 112H1601.73V161.465L1599.1 187.776H1601.73C1605.76 181.462 1611.11 176.462 1617.78 172.779C1624.44 169.095 1631.99 167.253 1640.4 167.253C1656.72 167.253 1668.91 172.165 1676.98 181.988C1685.05 191.811 1689.08 205.668 1689.08 223.559V300.388H1649.61V228.032C1649.61 221.016 1647.95 215.315 1644.61 210.93C1641.28 206.369 1636.11 204.089 1629.09 204.089C1620.15 204.089 1613.3 207.51 1608.57 214.35C1604.01 221.191 1601.73 230.137 1601.73 241.188V300.388H1562.26V112Z" fill="white"/>
<path d="M1541.3 267.499C1534.99 279.076 1526.57 288.197 1516.04 294.863C1505.69 301.353 1493.06 304.598 1478.15 304.598C1468.16 304.598 1458.86 302.932 1450.26 299.599C1441.84 296.091 1434.48 291.355 1428.16 285.391C1422.02 279.251 1417.2 271.972 1413.69 263.552C1410.36 255.133 1408.69 245.924 1408.69 235.926C1408.69 225.927 1410.36 216.719 1413.69 208.299C1417.2 199.879 1422.02 192.688 1428.16 186.724C1434.48 180.585 1441.84 175.849 1450.26 172.516C1458.86 169.008 1468.16 167.254 1478.15 167.254C1492.89 167.254 1505.52 170.499 1516.04 176.989C1526.74 183.479 1534.63 192.425 1539.72 203.826L1503.41 219.087C1500.61 214 1497.19 210.228 1493.15 207.773C1489.29 205.317 1484.29 204.089 1478.15 204.089C1469.56 204.089 1462.37 206.983 1456.58 212.772C1450.97 218.385 1448.16 226.103 1448.16 235.926C1448.16 245.749 1450.97 253.554 1456.58 259.343C1462.37 264.956 1469.56 267.762 1478.15 267.762C1484.29 267.762 1489.55 266.447 1493.94 263.816C1498.33 261.009 1502.01 256.975 1504.99 251.712L1541.3 267.499Z" fill="white"/>
<path d="M1390.46 269.078C1384.15 280.128 1375.81 288.811 1365.47 295.126C1355.29 301.441 1342.93 304.598 1328.37 304.598C1318.37 304.598 1309.07 302.932 1300.48 299.599C1292.06 296.091 1284.69 291.267 1278.38 285.128C1272.06 278.988 1267.15 271.797 1263.64 263.552C1260.13 255.133 1258.38 245.924 1258.38 235.926C1258.38 226.629 1260.13 217.859 1263.64 209.615C1267.15 201.195 1271.97 193.916 1278.11 187.776C1284.43 181.462 1291.71 176.462 1299.95 172.779C1308.37 169.095 1317.49 167.254 1327.31 167.254C1338.01 167.254 1347.4 169.008 1355.47 172.516C1363.71 176.024 1370.55 180.848 1375.99 186.987C1381.43 192.951 1385.55 200.055 1388.36 208.299C1391.16 216.368 1392.57 225.05 1392.57 234.347C1392.57 235.75 1392.48 237.154 1392.3 238.557C1392.3 239.96 1392.22 241.188 1392.04 242.24C1391.86 243.468 1391.78 244.608 1391.78 245.661H1296.79C1298.72 254.08 1302.67 260.22 1308.63 264.079C1314.6 267.938 1321.26 269.867 1328.63 269.867C1336 269.867 1342.05 268.288 1346.78 265.131C1351.7 261.974 1355.56 257.939 1358.36 253.028L1390.46 269.078ZM1355.47 218.823C1355.12 216.719 1354.24 214.438 1352.84 211.983C1351.61 209.527 1349.77 207.334 1347.31 205.405C1345.03 203.3 1342.14 201.633 1338.63 200.406C1335.3 199.002 1331.52 198.301 1327.31 198.301C1321.18 198.301 1315.47 200.055 1310.21 203.563C1304.95 207.071 1301.09 212.158 1298.64 218.823H1355.47Z" fill="white"/>
<path d="M1172.23 300.388V150.941H1119.6V112H1265.89V150.941H1213.27V300.388H1172.23Z" fill="url(#paint0_linear_16_60)"/>
<path d="M1061.23 288.811H1058.6C1054.39 293.372 1049.57 297.143 1044.13 300.125C1038.87 303.107 1032.03 304.598 1023.61 304.598C1017.12 304.598 1010.98 303.545 1005.19 301.441C999.577 299.336 994.577 296.354 990.192 292.495C985.983 288.636 982.65 283.987 980.194 278.55C977.738 273.112 976.51 267.061 976.51 260.395C976.51 253.905 977.826 248.029 980.457 242.767C983.088 237.329 986.684 232.681 991.245 228.822C995.805 224.963 1001.16 221.981 1007.29 219.876C1013.61 217.771 1020.45 216.719 1027.82 216.719C1035.71 216.719 1042.2 217.245 1047.29 218.297C1052.55 219.35 1057.2 220.578 1061.23 221.981V218.56C1061.23 212.947 1058.86 208.211 1054.13 204.352C1049.57 200.318 1043.34 198.301 1035.45 198.301C1024.05 198.301 1014.22 202.949 1005.98 212.246L979.142 193.302C986.509 184.531 995.016 178.041 1004.66 173.831C1014.49 169.446 1025.27 167.254 1037.03 167.254C1058.08 167.254 1073.95 171.99 1084.65 181.462C1095.35 190.758 1100.7 204.966 1100.7 224.086V300.388H1061.23V288.811ZM1061.23 249.608C1057.2 248.029 1053.16 246.801 1049.13 245.924C1045.27 245.047 1041.24 244.608 1037.03 244.608C1030.01 244.608 1024.75 246.099 1021.24 249.081C1017.73 251.888 1015.98 255.571 1015.98 260.132C1015.98 264.693 1017.64 268.376 1020.98 271.183C1024.31 273.814 1028.69 275.129 1034.13 275.129C1038.52 275.129 1042.38 274.428 1045.71 273.024C1049.22 271.446 1052.11 269.429 1054.39 266.973C1056.67 264.517 1058.34 261.798 1059.39 258.816C1060.62 255.659 1061.23 252.589 1061.23 249.608Z" fill="white"/>
<path d="M818.598 171.463H864.379L893.322 244.608H895.953L925.421 171.463H970.677L913.844 300.388H874.904L818.598 171.463Z" fill="white"/>
<path d="M682.224 112H721.691V161.465L719.06 187.776H721.691C725.725 181.462 731.075 176.462 737.741 172.779C744.406 169.095 751.949 167.253 760.368 167.253C776.681 167.253 788.872 172.165 796.941 181.988C805.01 191.811 809.044 205.668 809.044 223.559V300.388H769.577V228.032C769.577 221.016 767.911 215.315 764.578 210.93C761.245 206.369 756.071 204.089 749.054 204.089C740.109 204.089 733.268 207.51 728.532 214.35C723.971 221.191 721.691 230.137 721.691 241.188V300.388H682.224V112Z" fill="white"/>
<path d="M456.626 171.463H493.462V187.776H496.093C499.601 182.163 504.6 177.427 511.09 173.568C517.58 169.709 524.772 167.78 532.666 167.78C535.998 167.78 538.629 167.867 540.559 168.043C542.664 168.218 544.593 168.744 546.347 169.622V207.773C544.242 206.72 541.787 205.843 538.98 205.142C536.349 204.44 533.104 204.089 529.245 204.089C518.721 204.089 510.564 207.422 504.776 214.087C498.987 220.577 496.093 229.611 496.093 241.188V300.388H456.626V171.463ZM583.446 204.615H560.818V171.463H583.446V131.997H622.913V171.463H654.749V204.615H622.913V248.029C622.913 250.835 623.264 253.466 623.965 255.922C624.667 258.202 625.895 260.132 627.649 261.711C630.28 263.991 633.7 265.131 637.91 265.131C640.717 265.131 643.085 264.78 645.014 264.079C646.944 263.377 648.61 262.5 650.013 261.448L661.064 295.652C656.503 297.757 651.592 299.423 646.33 300.651C641.068 301.879 635.455 302.493 629.491 302.493C615.633 302.493 604.67 298.459 596.602 290.39C592.392 286.18 589.147 281.005 586.867 274.866C584.586 268.552 583.446 261.623 583.446 254.08V204.615Z" fill="white"/>
<path d="M435.954 305.208L411.033 145.895H302.831L314.969 223.725H191.552V217.687L245.042 145.896H121.043L1.22054 299.112V300.976C1.22054 299.757 0.835168 301.17 0 305.211H257.177C260.073 303.993 264.5 300.143 270.601 293.657C276.637 287.17 282.869 280.102 289.095 272.402C295.388 264.694 301.102 257.376 306.177 250.504C311.185 243.633 314.14 238.946 314.972 236.504L327.754 305.213H435.954V305.208ZM176.972 74.167H400.057L397.614 58.3684H189.688L176.972 74.167ZM124.64 141.077H248.702L266.935 116.74H144.094L124.64 141.077ZM302.188 141.077H410.392L406.798 116.74H298.533L302.188 141.077ZM150.775 107.621H273.616L288.192 87.5228H166.638L150.775 107.621ZM297.311 107.621H405.576L402.495 87.5228H294.291L297.311 107.621ZM392.161 29.2173H212.228L203.686 40.1322H394.598C394.211 38.5263 393.826 36.7932 393.376 34.9973C392.989 33.1334 392.604 31.2085 392.161 29.2173ZM381.818 0H236.568C235.348 1.2188 234.193 2.44269 233.159 3.66149C232.2 4.8786 231.039 5.90729 229.824 6.67796H384.902C384.449 5.45746 384.065 4.36427 383.68 3.33728C383.232 2.3103 382.655 1.2188 381.818 0Z" fill="url(#paint1_linear_16_60)"/>
<defs>
<linearGradient id="paint0_linear_16_60" x1="1192.75" y1="112" x2="1192.75" y2="300.388" gradientUnits="userSpaceOnUse">
<stop stop-color="#2B5AD4"/>
<stop offset="1" stop-color="#54C2FD"/>
</linearGradient>
<linearGradient id="paint1_linear_16_60" x1="217.976" y1="14.3839" x2="217.976" y2="285.636" gradientUnits="userSpaceOnUse">
<stop stop-color="#3663D8"/>
<stop offset="0.5" stop-color="#194BCF"/>
<stop offset="1" stop-color="#55C3FE"/>
</linearGradient>
</defs>
</svg>
